# xmcd
#
# Track frame offsets:
#	150
#	21655
#	48130
#	69973
#	89923
#	110513
#	126978
#	143155
#	159515
#
# Disc length: 2468 seconds
#
# Revision: 1
# Processed by: cddbd v1.5.2PL0 Copyright (c) Steve Scherf et al.
# Submitted via: audiograbber 1.83.01
#
DISCID=7f09a209
DTITLE=Dusan Prelevic - Prele - Ja
DYEAR=1998
DGENRE=General Blues
TTITLE0=Kada Budem Na Nebu
TTITLE1=Treba Imat Dusu
TTITLE2=Svako Ima Nekog Svog
TTITLE3=Mladosti
TTITLE4=Bila Je Ljubav (Jesenja Pesma)
TTITLE5=Necu Da Se Predam
TTITLE6=Covek I Pas
TTITLE7=In My Life
TTITLE8=Ubijam Coveka U Sebi
EXTD=
EXTT0=
EXTT1=
EXTT2=
EXTT3=
EXTT4=
EXTT5=
EXTT6=
EXTT7=
EXTT8=
PLAYORDER=
